<svg width="46" height="41" viewBox="0 0 46 41" fill="none" xmlns="http://www.w3.org/2000/svg">
<path d="M17.888 30.069C17.7168 30.069 17.5442 30.0101 17.4035 29.8902L12.56 25.766C12.3929 25.6236 12.2969 25.4156 12.2969 25.1959C12.2969 24.9766 12.3934 24.7686 12.56 24.6262L17.4035 20.5019C17.718 20.2338 18.1904 20.2718 18.4586 20.5863C18.7263 20.9012 18.6887 21.3736 18.3738 21.6414L14.1998 25.1959L18.3738 28.7504C18.6887 29.0185 18.7263 29.4909 18.4586 29.8054C18.3103 29.9796 18.0998 30.069 17.888 30.069Z" fill="#4681DD"/>
<path d="M27.4491 30.069C27.2373 30.069 27.0268 29.9796 26.8789 29.8054C26.6108 29.4909 26.6488 29.0185 26.9633 28.7504L31.1372 25.1959L26.9633 21.6414C26.6488 21.3736 26.6108 20.9012 26.8789 20.5863C27.1467 20.2718 27.6195 20.2338 27.9336 20.5019L32.777 24.6262C32.9441 24.7686 33.0402 24.9766 33.0402 25.1959C33.0402 25.4156 32.9441 25.6236 32.777 25.766L27.9336 29.8902C27.7928 30.0101 27.6203 30.069 27.4491 30.069Z" fill="#4681DD"/>
<path d="M20.9538 33.1623C20.9024 33.1623 20.8506 33.1569 20.7984 33.146C20.3941 33.0608 20.1351 32.6636 20.2203 32.2593L23.2389 17.9273C23.3241 17.523 23.7209 17.264 24.1257 17.3492C24.53 17.4344 24.789 17.8312 24.7038 18.2359L21.6851 32.568C21.6108 32.9205 21.3 33.1623 20.9538 33.1623Z" fill="#4681DD"/>
<path d="M40.3116 40.9697H5.02558C2.25466 40.9697 0 38.7155 0 35.9441V5.99531C0 3.22439 2.25466 0.969727 5.02558 0.969727H40.3116C43.0825 0.969727 45.3372 3.22439 45.3372 5.99531V35.9441C45.3372 38.7155 43.0825 40.9697 40.3116 40.9697ZM5.02558 2.46671C3.08001 2.46671 1.49698 4.04974 1.49698 5.99531V35.9441C1.49698 37.8897 3.08001 39.4727 5.02558 39.4727H40.3116C42.2572 39.4727 43.8402 37.8897 43.8402 35.9441V5.99531C43.8402 4.04974 42.2572 2.46671 40.3116 2.46671H5.02558Z" fill="#4681DD"/>
<path d="M44.5887 12.955H0.748491C0.334983 12.955 0 12.62 0 12.2065C0 11.7934 0.334983 11.458 0.748491 11.458H44.5887C45.0022 11.458 45.3372 11.7934 45.3372 12.2065C45.3372 12.62 45.0022 12.955 44.5887 12.955Z" fill="#4681DD"/>
<path d="M12.7886 9.37312C11.4829 9.37312 10.4199 8.31011 10.4199 7.00443C10.4199 5.69833 11.4829 4.63574 12.7886 4.63574C14.0947 4.63574 15.1573 5.69833 15.1573 7.00443C15.1573 8.31011 14.0947 9.37312 12.7886 9.37312ZM12.7886 6.13272C12.3083 6.13272 11.9169 6.52367 11.9169 7.00443C11.9169 7.48518 12.3083 7.87613 12.7886 7.87613C13.2694 7.87613 13.6603 7.48518 13.6603 7.00443C13.6603 6.52367 13.2694 6.13272 12.7886 6.13272Z" fill="#4681DD"/>
<path d="M5.51127 9.34968C4.20517 9.34968 3.14258 8.28709 3.14258 6.98099C3.14258 5.67489 4.20517 4.6123 5.51127 4.6123C6.81737 4.6123 7.87996 5.67489 7.87996 6.98099C7.87996 8.28709 6.81737 9.34968 5.51127 9.34968ZM5.51127 6.10928C5.03093 6.10928 4.63956 6.50065 4.63956 6.98099C4.63956 7.46174 5.03093 7.8527 5.51127 7.8527C5.99202 7.8527 6.38298 7.46174 6.38298 6.98099C6.38298 6.50065 5.99202 6.10928 5.51127 6.10928Z" fill="#4681DD"/>
<path d="M20.0665 9.39615C18.7608 9.39615 17.6982 8.33356 17.6982 7.02746C17.6982 5.72177 18.7608 4.65918 20.0665 4.65918C21.3726 4.65918 22.4352 5.72177 22.4352 7.02746C22.4352 8.33356 21.3726 9.39615 20.0665 9.39615ZM20.0665 6.15575C19.5862 6.15575 19.1952 6.5467 19.1952 7.02746C19.1952 7.50821 19.5862 7.89916 20.0665 7.89916C20.5473 7.89916 20.9382 7.50821 20.9382 7.02746C20.9382 6.5467 20.5473 6.15575 20.0665 6.15575Z" fill="#4681DD"/>
</svg>
