<svg width="40" height="41" viewBox="0 0 40 41" fill="none" xmlns="http://www.w3.org/2000/svg">
<path d="M10.7003 26.1442C11.0738 25.9288 11.2017 25.4506 10.9863 25.077C10.7705 24.7038 10.2926 24.5756 9.91905 24.7911C9.54552 25.0068 9.41734 25.485 9.6331 25.8583C9.84856 26.2318 10.3268 26.36 10.7003 26.1442Z" fill="#4681DD"/>
<path d="M7.49877 31.536L11.4331 38.3509C12.2821 39.823 14.1919 40.3681 15.7022 39.495C17.1966 38.6313 17.7103 36.7218 16.8457 35.2262L14.5019 31.1661L16.5317 29.9942C16.9052 29.7782 17.0334 29.3006 16.8176 28.927L15.8017 27.1674C15.9228 27.1439 16.7194 26.9876 30.7657 24.2322C32.5021 24.1379 33.5425 22.2388 32.6654 20.7205L30.069 16.2235L31.7282 13.7103C31.8912 13.4632 31.9009 13.1455 31.7529 12.8891L30.1904 10.1829C30.0424 9.92652 29.7613 9.77637 29.4668 9.79376L26.4612 9.97412L23.5788 4.98145C23.1613 4.25818 22.4133 3.82025 21.5784 3.80988C21.5683 3.80957 21.5585 3.80957 21.5485 3.80957C20.7416 3.80957 20.0091 4.21118 19.5752 4.8902L9.3695 17.8913L2.73467 21.7218C0.12511 23.2279 -0.778821 26.5756 0.73302 29.1922C2.11425 31.5848 5.02623 32.526 7.49877 31.536ZM15.4928 36.0077C15.9244 36.7542 15.6689 37.7094 14.9203 38.1418C14.1693 38.5761 13.2129 38.3093 12.7862 37.5699L8.87999 30.8032L11.5863 29.2407C16.1072 37.0722 15.4202 35.8823 15.4928 36.0077ZM13.7207 29.8126L12.9394 28.4595L14.2926 27.6782L15.0738 29.0314L13.7207 29.8126ZM29.0787 11.3822L30.1584 13.2523L29.1955 14.7104L27.3346 11.4868L29.0787 11.3822ZM20.8819 5.74683C21.0916 5.40381 21.4242 5.36841 21.5591 5.37207C21.6925 5.3736 22.0248 5.4151 22.2253 5.76239L31.3122 21.5018C31.6083 22.0142 31.2485 22.6584 30.6549 22.6731C30.5484 22.6755 30.4993 22.6947 30.2264 22.7457L20.6143 6.09686C20.816 5.83747 20.842 5.81244 20.8819 5.74683ZM19.5746 7.42133L28.6056 23.0637L14.9759 25.737L10.8316 18.559L19.5746 7.42133ZM2.08617 28.411C1.74315 27.8174 1.56188 27.1436 1.56188 26.4618C1.56188 25.0684 2.31078 23.7708 3.51592 23.075L9.60509 19.5593L13.5113 26.3251L7.42217 29.841C5.55663 30.9177 3.16313 30.2762 2.08617 28.411Z" fill="#4681DD"/>
<path d="M8.27995 26.6397C8.06419 26.2662 7.58629 26.138 7.21275 26.3538L5.8596 27.135C5.48668 27.3505 5.00786 27.222 4.7924 26.8491C4.57664 26.4755 4.09874 26.3474 3.7252 26.5631C3.35167 26.7789 3.2235 27.2568 3.43925 27.6303C4.08226 28.7442 5.51659 29.137 6.64085 28.4882L7.994 27.7069C8.36754 27.4912 8.49571 27.0136 8.27995 26.6397Z" fill="#4681DD"/>
<path d="M38.8388 5.48068L34.4855 7.90316C34.1086 8.11312 33.9728 8.58889 34.1828 8.96578C34.3921 9.34237 34.8676 9.47878 35.2454 9.26852L39.5984 6.84603C39.9756 6.63607 40.1111 6.1603 39.9011 5.78341C39.6915 5.40621 39.2157 5.27071 38.8388 5.48068Z" fill="#4681DD"/>
<path d="M38.3822 13.5719L35.3637 12.7632C34.9469 12.6515 34.5184 12.8987 34.4067 13.3156C34.295 13.7325 34.5425 14.1606 34.9594 14.2723L37.9782 15.081C38.3975 15.1936 38.8238 14.9425 38.9349 14.5287C39.0466 14.1118 38.7991 13.6833 38.3822 13.5719Z" fill="#4681DD"/>
<path d="M30.7969 2.64268L29.9873 5.66148C29.8756 6.07835 30.1228 6.50651 30.5396 6.61851C30.9562 6.7299 31.3847 6.48332 31.4967 6.06614L32.306 3.04734C32.4177 2.63047 32.1705 2.20201 31.7536 2.09031C31.3371 1.97862 30.9086 2.22581 30.7969 2.64268Z" fill="#4681DD"/>
</svg>
