<svg fill="none" height="512" viewBox="0 0 24 24" width="512" xmlns="http://www.w3.org/2000/svg"><g fill="rgb(255,255,255)"><path clip-rule="evenodd" d="m20.2383 10.5147v.9867c0 1.2263-.9941 2.2204-2.2204 2.2204-1.2262 0-2.2203-.9941-2.2203-2.2204v-.9867l1.544.6862c.4306.1914.9221.1914 1.3527 0zm-5.8284-.61676v2.43616c0 .23-.1864.4164-.4164.4164-.2299 0-.4163-.1864-.4163-.4164v-2.80676c.0051.00261.0103.0051.0156.00746z" fill-rule="evenodd"/><path d="m22.4426 9.43735-3.7488-1.66614c-.4306-.19137-.9221-.19137-1.3527 0l-3.7488 1.66614c-.2197.09767-.2197.40957 0 .50725l3.7488 1.6661c.4306.1914.9221.1914 1.3527 0l3.7488-1.6661c.2198-.09768.2198-.40958 0-.50725z"/><path clip-rule="evenodd" d="m16.3165 18.5722h5.0313c.6132 0 1.1102-.497 1.1102-1.1102 0-1.2029-1.0862-2.2375-2.6433-2.6954-.1859-.0546-.3847.0041-.5209.1418l-.8818.8916c-.2173.2197-.5721.2197-.7894 0l-.8817-.8916c-.1363-.1377-.3351-.1964-.521-.1418-.5455.1604-1.0331.3916-1.4366.676.9612.8796 1.5293 1.9606 1.5332 3.1296z" fill-rule="evenodd"/><path clip-rule="evenodd" d="m11.7822 8.20718v1.50543c0 1.87069-1.5165 3.38719-3.38719 3.38719-1.87072 0-3.38722-1.5165-3.38722-3.38719v-1.50543l2.35546 1.04688c.65686.29194 1.40665.29194 2.06352 0zm-8.89143-.94089v3.71651c0 .3508-.28434.6351-.6351.6351s-.6351-.2843-.6351-.6351v-4.28187c.00771.00398.01563.00777.02374.01138z" fill-rule="evenodd"/><path d="m15.145 5.93844-5.71889-2.54175c-.65687-.29194-1.40666-.29194-2.06353 0l-5.71893 2.54175c-.33526.149-.33526.62482 0 .77382l5.71893 2.54175c.65687.29194 1.40666.29194 2.06353 0l5.71889-2.54175c.3353-.149.3353-.62482 0-.77382z"/><path d="m6.44723 14.2851 1.34517 1.3602c.33145.3351.87276.3351 1.2042 0l1.3452-1.3602c.2078-.2101.5111-.2997.7947-.2163 2.3754.6985 4.0324 2.2768 4.0324 4.1119 0 .9354-.7582 1.6936-1.6936 1.6936h-10.16163c-.93535 0-1.69361-.7582-1.69361-1.6936 0-1.8351 1.65708-3.4134 4.03248-4.1119.28353-.0834.58689.0062.79469.2163z"/></g></svg>