<svg fill="none" height="128" viewBox="0 0 128 128" width="128" xmlns="http://www.w3.org/2000/svg"><g fill="rgb(255,255,255)"><path d="m64.0001 26c-7.1797 0-13 5.8203-13 13s5.8203 13 13 13 13-5.8203 13-13-5.8203-13-13-13z"/><path d="m95 67.5141v5.2678c-2.4492 2.109-4 5.2324-4 8.7181 0 3.4856 1.5508 6.6091 4 8.7181v5.5896c0 .9697-.6956 1.7997-1.6503 1.9692l-16.2485 2.8851c-2.1905.389-4.3007 1.141-6.2438 2.224l-4.8574 2.709v-31.5061c0-3.0345 2.2656-5.5913 5.278-5.9564l21.4813-2.6038c1.1913-.1444 2.2407.7854 2.2407 1.9854z"/><path d="m33 95.8077v-5.5896c2.4492-2.109 4-5.2325 4-8.7181 0-3.4857-1.5508-6.6091-4-8.7181v-5.2678c0-1.2 1.0494-2.1298 2.2407-1.9854l21.4813 2.6038c3.0124.3651 5.278 2.9219 5.278 5.9564v31.5061l-4.8574-2.709c-1.9431-1.083-4.0533-1.835-6.2438-2.224l-16.2485-2.8851c-.9547-.1695-1.6503-.9995-1.6503-1.9692z"/><path d="m40.1929 62.0997 17.0104 2.0618c2.7983.3392 5.21 1.8131 6.7967 3.9271 1.5867-2.114 3.9984-3.5879 6.7967-3.9271l17.0105-2.0619c-2.5677-3.1143-6.4556-5.0996-10.8071-5.0996h-26c-4.3516 0-8.2394 1.9853-10.8072 5.0997z"/><path d="m25.5 89c4.1421 0 7.5-3.3579 7.5-7.5s-3.3579-7.5-7.5-7.5c-1.2407 0-2.5.5408-2.5 2v11c0 1.4592 1.2593 2 2.5 2z"/><path d="m102.5 89c-4.1421 0-7.5-3.3579-7.5-7.5s3.3579-7.5 7.5-7.5c1.241 0 2.5.5408 2.5 2v11c0 1.4592-1.259 2-2.5 2z"/></g></svg>