<svg id="Glyph" enable-background="new 0 0 32 32" viewBox="0 0 32 32" xmlns="http://www.w3.org/2000/svg"><path d="m22.631 11.994c-3.168-.097-4.405-1.409-7.131-1.197v-5.782c2.718-.257 3.955.888 7.102.979.163.005.26.188.161.318l-1.763 2.323 1.815 3.054c.08.134-.027.31-.184.305z" fill="#fff" /><path d="m12 16.026v-11.026c0-.552.448-1 1-1s1 .448 1 1v10.939c-.283-.148-.586-.248-.912-.248-.395 0-.767.125-1.088.335z" fill="white"/><path d="m30 28h-28l2.893-4.822c.068-.114.179-.196.307-.228l3.635-.909c.106-.027.201-.087.269-.173l3.592-4.49c.169-.211.474-.25.69-.088l3.006 2.255-.922.925c-.074.074-.132.163-.17.261l-1.25 3.25c-.148.386.044.82.431.969.088.034.179.05.269.05.301 0 .585-.183.7-.481l1.193-3.101 1.418-1.418h1.656c.176 0 .338.092.429.243l2.648 4.413c.121.201.365.291.587.217l2.326-.775c.18-.06.378-.013.512.121z" fill="#fff"/></svg>