<svg id="Layer_1" viewBox="0 0 512 512" xmlns="http://www.w3.org/2000/svg" data-name="Layer 1">
  <path d="m172.164 444.354 85.129 23.381c.153.05.306.089.456.15 14.9 5.2 28.042 4.03 40.169-3.61l.114-.071 131.362-79.204a6.084 6.084 0 0 1 .695-.37c10.315-4.73 16.2-11.291 16.573-18.461.309-5.979-3.308-11.949-9.441-15.569-8.6-5.08-19.9-4.29-30.227 2.11-.113.07-.226.139-.342.2l-87.985 47.931c-16.478 12.3-49.769 9.949-101.724-7.16a7 7 0 0 1 4.38-13.3c26.559 8.75 45.635 12.759 59.355 13.93 10.05-5.28 15.7-10.93 15.914-15.98.235-5.56-5.865-12.621-16.738-19.37-31.692-19.67-91.941-30.47-111.364-19.991l-57.363 34.66 43.228 74.87 4.719-3.049c3.971-2.56 6.369-3.381 10.951-1.77.572.2 1.22.429 2.139.679zm-23.464 22.346a10.43 10.43 0 0 1 -3.813 14.231l-23.687 13.684a10.433 10.433 0 0 1 -14.229-3.81l-57.85-100.211a10.432 10.432 0 0 1 3.813-14.229l23.688-13.671a10.424 10.424 0 0 1 14.229 3.811zm-66.29-59.489a7.007 7.007 0 0 0 6.059-10.511l-8.434-14.6a7 7 0 0 0 -12.124 7l8.435 14.6a7 7 0 0 0 6.068 3.51zm187.4-217.8 40.305 107.369 39.9-108.06-80.2.691zm21.059 95.94-87.153-95.371 51.188-.44zm74.115-96.751 51.29-.439-86.854 96.76zm-.556-14 55.386-.469-36.692-51.111h-33.25zm-14.511.131-80.745.689 13.5-52.4h52.652l14.592 51.711zm-95.234.809 13.533-52.52h-33.633l-33.806 52.98zm-56.936-75.815a7.006 7.006 0 0 0 1.354-9.811l-28.832-38.059a7 7 0 0 0 -11.159 8.445l28.832 38.061a6.992 6.992 0 0 0 9.805 1.36zm104.7-76.541 1.278 47.73a7 7 0 0 0 6.994 6.811h.19a7.007 7.007 0 0 0 6.811-7.19l-1.277-47.73a7 7 0 1 0 -14 .379zm149.243 28.67-28.83 38.061a7 7 0 1 0 11.159 8.449l28.833-38.064a7 7 0 0 0 -11.159-8.45z" fill="#ffffff" fill-rule="evenodd"/>
</svg>
