<svg id="Layer_1" enable-background="new 0 0 48 48" height="512" viewBox="0 0 48 48" width="512" xmlns="http://www.w3.org/2000/svg"><path fill="#0D3F8E" d="m11.6 9.9c1-.3 2-.4 3-.4 1.6 0 3.2.4 4.6 1.1-1-2.2-3.5-3.2-5.7-2.3-.8.4-1.4.9-1.9 1.6z"/><path fill="#0D3F8E" d="m28.8 10.6c1.4-.7 3-1.1 4.6-1.1 1 0 2 .2 3 .4-.9-1.2-2.2-1.9-3.7-1.9-1.7 0-3.3 1-3.9 2.6z"/><path fill="#0D3F8E" d="m28.8 20c4-2.6 9.2-2.7 13.2-.2l-3.1-6.2c-.1-.2-.2-.3-.4-.4 0 0-1.6-1.6-5.2-1.6-2.3 0-3.7.6-4.9 1.7-.2.1-.3.4-.4.6l-.5 3.1h-1.1c-.3-.2-.5-.4-.8-.5-1-.4-2.1-.4-3.1 0-.3.1-.6.3-.8.5h-1.1l-.6-3.2c0-.1-.1-.3-.1-.3-1.9-1.6-3.7-1.9-5.2-1.9-1.7 0-2.6-.1-5.2 1.6-.2.1-.3.2-.4.4l-3 6.2c4-2.4 9.1-2.4 13.1.2.7.5 4.8 5.5 4.8 5.5s4-5 4.8-5.5z"/><path fill="#0D3F8E" d="m12.5 20c-5.8 0-10.5 4.7-10.5 10.5s4.7 10.5 10.5 10.5 10.5-4.7 10.5-10.5-4.7-10.5-10.5-10.5zm0 17.4c-3.8 0-7-3.1-7-7 0-3.8 3.1-7 7-7s7 3.1 7 7-3.2 7-7 7z"/><path fill="#0D3F8E" d="m35.5 20c-5.8 0-10.5 4.7-10.5 10.5s4.7 10.5 10.5 10.5 10.5-4.7 10.5-10.5-4.7-10.5-10.5-10.5zm0 17.4c-3.8 0-7-3.1-7-7 0-3.8 3.1-7 7-7s7 3.1 7 7-3.2 7-7 7z"/></svg>