<svg height="512" viewBox="0 0 32 32" width="512" xmlns="http://www.w3.org/2000/svg"><g id="_x30_1"><path fill="#255299" d="m16 9c1.8582764 0 3.4107056 1.2797241 3.8579712 3h7.1420288v-1c0-.5522461-.4477539-1-1-1h-1.5224609c-.1054688-.2978516-.2260742-.5888672-.3613281-.8730469l1.0761719-1.0766602c.390625-.390625.390625-1.0234375 0-1.4140625l-2.8286133-2.8286133c-.390625-.390625-1.0234375-.390625-1.4140625 0l-1.0766602 1.0761719c-.2841797-.1352538-.5751953-.2558593-.8730469-.3613281v-1.5224609c0-.5522461-.4477539-1-1-1h-4c-.5522461 0-1 .4477539-1 1v1.5224609c-.2978516.1054688-.5888672.2260742-.8730469.3613281l-1.0766601-1.0761718c-.390625-.390625-1.0234375-.390625-1.4140625 0l-2.8286133 2.8286133c-.390625.390625-.390625 1.0234375 0 1.4140625l1.0761719 1.0766602c-.1352539.2841796-.2558594.5751952-.3613282.8730468h-1.5224609c-.5522461 0-1 .4477539-1 1v1h7.1420288c.4472656-1.7202759 1.9996948-3 3.8579712-3z"/><path fill="#255299" d="m29 13h-26c-.5522461 0-1 .4477539-1 1v1.2330322l5.6515503 3.7677002h5.3485107c0-.0002441-.000061-.0004883-.000061-.0004883 0-1.4833374 1.0841064-2.7099609 2.5-2.949707v-.5505371c0-.2763672.2236328-.5.5-.5s.5.2236328.5.5v.5505371c1.4158936.2397461 2.5 1.4663696 2.5 2.9494629 0 0-.0001221.0004883-.0001221.0007324h5.3485718l5.6515503-3.7677002v-1.2330322c0-.5522461-.4477539-1-1-1z"/><path fill="#255299" d="m24.4998169 20.0007324h-5.999939c-.2763672 0-.5-.2236328-.5-.5 0-.0002441.0001221-.0004272.0001221-.0004272v-.0003052c0-1.1030273-.8969727-2.5-2-2.5s-2 .8969727-2 2 .8969727 2 2 2c1.6542969 0 3 1.3457031 3 3 0 1.4830933-1.0841064 2.7097168-2.5 2.9494629v.5505371c0 .2763672-.2236328.5-.5.5s-.5-.2236328-.5-.5v-.5505371c-1.4158936-.2397461-2.5-1.4663696-2.5-2.9494629 0-.2763672.2236328-.5.5-.5s.5.2236328.5.5c0 1.1030273.8969727 2 2 2s2-.8969727 2-2-.8969727-2-2-2c-1.3016968 0-2.4011841-.8381348-2.8154907-1.9992676h-5.6843262c-.0986328 0-.1953125-.0292969-.2773438-.0839844l-5.2228393-3.4818725v12.5651245c0 .5522461.4477539 1 1 1h26c.5522461 0 1-.4477539 1-1v-12.5651245l-5.2228394 3.4818726c-.0820312.0546874-.1787109.0839843-.2773437.0839843z"/></g></svg>