<svg id="f143ec9b-50eb-45a2-b3cb-f96d11260b40" viewBox="0 0 64 64" xmlns="http://www.w3.org/2000/svg" data-name="glypg"><path fill="#255299" d="m18.6341 44.5463c-2.7714.0829-4.7329.7889-7.2578 1.0495l2.3394 8.6774a3.7036 3.7036 0 0 0 4.7485 2.5192l2.3093-.79a2.2019 2.2019 0 0 0 .9-3.529 13.8511 13.8511 0 0 1 -3.0394-7.9271z"/><path fill="#255299" d="m37.2584 18.1445c-2.38-3.9378-5.7978-6.329-8.3675-2.6094-3.3809 4.7093-9.4686 11.3784-16.2149 13.0162a10.1083 10.1083 0 0 0 -1.17 4.3986 16.7485 16.7485 0 0 0 1.06 6.7379 10.3982 10.3982 0 0 0 1.82 3.4289 1.1706 1.1706 0 0 0 .22-.04 17.4039 17.4039 0 0 1 3.9688-.55 29.619 29.619 0 0 1 12.5152 2.6494 41.3608 41.3608 0 0 1 4.2987 2.1593c1.4911 1.3645 3.6637 1.7666 5.1284.24 4.9944-6.2029.7173-23.1163-3.2587-29.4309zm3.329 23.5826c-1.3649 11.1269-7.4308.0483-8.8272-4.6886a42.2768 42.2768 0 0 1 -2.3594-15.645c.4158-5.7446 2.4866-8.1248 6.1581-2.2093 3.6411 6.0858 5.7311 15.9113 5.0285 22.5429z"/><path fill="#255299" d="m12.1562 43.4566a17.94 17.94 0 0 1 -1.95-14.3056l-1.09.28c-4.6812.7386-6.02 5.1274-4.5685 9.1972.0891.9193 2.5966 6.1518 7.6085 4.8284z"/><path fill="#255299" d="m37.2384 28.6312a2.6792 2.6792 0 0 0 -2.3793-1.59c-.02-.0125-3.299.07-3.299.07a45.5582 45.5582 0 0 0 1.9799 8.9777c.0332.0241 2.3274-.9843 2.4392-1 2.4647-.7226 2.3238-4.588 1.2592-6.4577z"/><path fill="#255299" d="m59.9613 27.6515a3.3665 3.3665 0 0 0 -5.9781-1.5794 3.5854 3.5854 0 0 0 -.65 1.4716l-1.8488.2506a16.0123 16.0123 0 0 0 -8.2079-11.0794l1.5295-2.1393a3.3493 3.3493 0 1 0 -2.2093-2.7091 3.27 3.27 0 0 0 .61 1.4994l-2.2495 3.1391a1.0125 1.0125 0 0 0 .41 1.5 14.1639 14.1639 0 0 1 3.239 23.9026 1.0041 1.0041 0 0 0 -.36.76.9467.9467 0 0 0 .35.77l3.3689 2.8691a3.2944 3.2944 0 0 0 -.41 2.1094 3.3447 3.3447 0 1 0 1.8794-3.4788l-2.6692-2.2694a16.0437 16.0437 0 0 0 4.9782-12.8894l1.8577-.2519a3.36 3.36 0 0 0 6.3601-1.8751z"/></svg>