<svg id="Capa_1" enable-background="new 0 0 512 512" height="512" viewBox="0 0 512 512" width="512" xmlns="http://www.w3.org/2000/svg"><g><path fill="#255299" d="m481.425 258.585c-4.31-77.083-49.168-145.312-113.637-182.585h56.975c6.213 17.422 22.707 30 42.237 30 24.814 0 45-20.186 45-45s-20.186-45-45-45c-19.53 0-36.024 12.578-42.237 30h-123.763v-30h-90v30h-123.763c-6.213-17.422-22.707-30-42.237-30-24.814 0-45 20.186-45 45s20.186 45 45 45c19.53 0 36.024-12.578 42.237-30.01h56.977c-64.471 37.284-109.327 105.484-113.639 182.595-17.717 6.05-30.575 22.674-30.575 42.415 0 24.814 20.186 45 45 45s45-20.186 45-45c0-19.125-12.043-35.391-28.901-41.895 5.33-85.296 67.3-157.32 149.901-177.037v23.932h90v-23.932c82.601 19.717 144.571 91.741 149.901 177.037-16.858 6.504-28.901 22.77-28.901 41.895 0 24.814 20.186 45 45 45s45-20.186 45-45c0-19.741-12.858-36.365-30.575-42.415z"/><path fill="#255299" d="m151 436h210v60h-210z"/><path fill="#255299" d="m148.905 300.341 52.821 105.659h108.548l52.821-105.659-92.095-153.492v169.151h-30v-169.151z"/></g></svg>