<svg height="512" viewBox="0 0 32 32" width="512" xmlns="http://www.w3.org/2000/svg"><g id="_x30_1"><path fill="#255299" d="m23.8173828 28.4243164-1.6875-2.3959961c-.3530273-.6367187-1.0146484-1.0283203-1.7480469-1.0283203h-1.3818359v1c0 1.1030273-.8969727 2-2 2h-2c-1.1030273 0-2-.8969727-2-2v-1h-1.3818359c-.7333984 0-1.3950195.3916016-1.7480469 1.0283203l-1.6875 2.3959961c-.215332.3051758-.2421875.7045898-.0703125 1.0361328s.5141601.5395508.8876953.5395508h14c.3735352 0 .7158203-.2080078.8876953-.5395508s.1450195-.730957-.0703125-1.0361328z"/><path fill="#255299" d="m17 27h-2c-.5522852 0-1-.4477158-1-1v-4h4v4c0 .5522842-.4477158 1-1 1z"/><path fill="#255299" d="m26 2h-20c-2.2055664 0-4 1.7944336-4 4v11c0 2.2055664 1.7944336 4 4 4h20c2.2055664 0 4-1.7944336 4-4v-11c0-2.2055664-1.7944336-4-4-4zm-13.1464844 13.1464844c.1953125.1953125.1953125.5117188 0 .7070313-.0976562.0976562-.2255859.1464843-.3535156.1464843s-.2558594-.0488281-.3535156-.1464844l-4-4c-.1953125-.1953125-.1953125-.5117188 0-.7070313l4-4c.1953125-.1953125.5117188-.1953125.7070313 0s.1953125.5117188 0 .7070313l-3.6464844 3.6464844zm5.1146851-7.4707031-3 8c-.0751953.2006835-.2661133.3242187-.4682617.3242187-.0585938 0-.1176758-.0102539-.1757813-.0317383-.2583008-.097168-.3891602-.3852539-.2924805-.644043l3-8c.097168-.2592773.3857422-.3881836.644043-.2924805.2583008.0971681.3891602.385254.2924805.6440431zm5.8853149 4.1777343-4 4c-.0976562.0976563-.2255859.1464844-.3535156.1464844s-.2558594-.0488281-.3535156-.1464844c-.1953125-.1953125-.1953125-.5117188 0-.7070313l3.6464844-3.6464843-3.6464844-3.6464844c-.1953125-.1953125-.1953125-.5117188 0-.7070313s.5117188-.1953125.7070313 0l4 4c.1953124.1953126.1953124.5117188-.0000001.7070313z"/></g></svg>