<svg id="Layer_1" enable-background="new 0 0 468 468" viewBox="0 0 468 468" xmlns="http://www.w3.org/2000/svg"><g><g><g><g><path fill="#255299" d="m148.436 413.768c.39-2.822 2.995-4.792 5.811-4.406 2.82.39 4.791 2.994 4.401 5.816l-7.01 50.822h166.45l-7.009-50.822c-.39-2.822 1.581-5.426 4.401-5.816 2.814-.386 5.422 1.583 5.811 4.406l7.203 52.232h35.628l-15.509-117.557c-3.559-26.968-21.295-50.357-46.29-61.04-10.813-4.621-22.16-8.152-33.758-10.505-.606.308-1.217.606-1.83.897v21.296c0 18.066-14.684 32.765-32.733 32.765-18.053 0-32.737-14.698-32.737-32.765v-21.296c-.614-.291-1.224-.589-1.83-.897-11.598 2.353-22.945 5.884-33.758 10.505-24.995 10.683-42.731 34.072-46.29 61.04l-15.509 117.557h37.354z"/><path fill="#255299" d="m239.012 285.008c-9.222.607-18.609-.467-27.439-3.192v17.274c0 12.377 10.06 22.446 22.425 22.446 12.369 0 22.429-10.069 22.429-22.446v-17.274c-5.642 1.741-11.523 2.808-17.415 3.192z"/></g><path fill="#255299" d="m106.119 348.48c3.545-26.863 18.82-50.757 41.061-65.436-11.305-5.522-29.825-5.459-45.431 10.786 0 0-14.377-31.481-46.805-9.929l21.209-50.621 4.796 2.184c8.305 3.782 18.1.098 21.86-8.223l3.901-8.631c5.461-12.083-1.048-26.204-13.776-29.887l-15.056-4.358c-18.929-5.479-38.984 3.941-46.856 22.008l-26.136 59.981c-9.926 22.781-4.465 49.534 13.994 66.158 24.771 22.309 57.951 29.605 85.22 31.278z"/><g><path fill="#255299" d="m463.114 266.354-26.136-59.984c-7.872-18.067-27.927-27.487-46.856-22.008l-15.056 4.358c-12.728 3.684-19.237 17.805-13.776 29.887l3.901 8.631c3.76 8.321 13.555 12.005 21.86 8.223l4.796-2.184 21.209 50.621c-32.428-21.552-46.805 9.929-46.805 9.929-15.606-16.245-34.126-16.308-45.431-10.786 22.241 14.68 37.517 38.574 41.062 65.436l2.02 15.31c27.268-1.673 60.449-8.969 85.22-31.278 18.457-16.621 23.918-43.374 13.992-66.155z"/></g></g><g><path fill="#255299" d="m185.397 114.21c-5.515 4.797-15.048 16.631-20.409 30.653-4.707 12.31-5.914 25.957-3.603 40.632.879-.097 1.76-.149 2.639-.156l18.081-26.999c2.363-3.527 7.153-2.424 9.16.758 10.023 13.033 25.813 20.724 42.251 20.521 16.132-.18 30.894-7.522 40.781-20.177v-4.615c0-7.015-5.702-12.723-12.71-12.723-2.847 0-5.156-2.31-5.156-5.159s2.304-5.159 5.151-5.159c12.697 0 23.024 10.336 23.024 23.041v4.383l21.829 23.894c7.546-40.147-21.031-73.813-58.059-85.271-20.344-6.296-38.684-2.86-51.499 14.821-.002.001-6.129-3.968-11.48 1.556z"/><path fill="#255299" d="m304.245 196.189-24.566-27.081c-11.729 13.113-28.194 20.628-46.048 20.828-18.047.201-34.763-7.067-46.804-20.116l-17.746 26.461c-7.641-1.791-15.2 4.179-15.2 12.044 0 7.868 7.567 13.843 15.211 12.041 3.567 31.284 34.579 54.495 64.909 54.495 33.211 0 57.268-23.639 65.356-54.395 7.531 1.5 14.798-4.447 14.798-12.141 0-5.995-4.257-10.993-9.91-12.136z"/></g></g><g><path fill="#255299" d="m234 56.291c-2.762 0-5-2.241-5-5.005v-44.281c0-2.764 2.238-5.005 5-5.005s5 2.241 5 5.005v44.281c0 2.764-2.238 5.005-5 5.005z"/><path fill="#255299" d="m150.62 78.67c-1.729 0-3.409-.898-4.335-2.503l-22.121-38.349c-1.381-2.393-.562-5.455 1.83-6.837 2.392-1.384 5.45-.562 6.83 1.832l22.121 38.349c1.89 3.275-.541 7.508-4.325 7.508z"/><path fill="#255299" d="m89.576 139.78c-.848 0-1.707-.217-2.495-.672l-38.314-22.14c-2.392-1.382-3.211-4.443-1.83-6.837 1.379-2.393 4.435-3.216 6.83-1.832l38.314 22.14c4.255 2.459 2.41 9.341-2.505 9.341z"/><path fill="#255299" d="m378.453 139.73c-4.905 0-6.773-6.874-2.505-9.34l38.313-22.14c2.392-1.383 5.45-.561 6.83 1.832 1.381 2.394.562 5.455-1.83 6.837l-38.313 22.14c-.787.454-1.647.671-2.495.671z"/><path fill="#255299" d="m317.388 78.641c-3.783 0-6.215-4.233-4.325-7.508l22.121-38.348c1.381-2.394 4.441-3.213 6.83-1.832 2.392 1.382 3.211 4.443 1.83 6.837l-22.121 38.348c-.926 1.605-2.608 2.503-4.335 2.503z"/></g></g><g/><g/><g/><g/><g/><g/><g/><g/><g/><g/><g/><g/><g/><g/><g/></svg>