<svg width="200" height="200" viewBox="0 0 200 200" fill="none" xmlns="http://www.w3.org/2000/svg">
<path d="M107.259 52.7161C117.258 54.3919 126.341 59.1146 133.592 66.351C140.843 73.5873 145.538 82.6518 147.255 92.6304M108.786 20C126.57 23.0088 142.79 31.4259 155.689 44.2609C168.589 57.134 176.985 73.3206 180 91.0688M166.108 161.681C166.108 161.681 156.452 171.164 154.086 173.944C150.232 178.058 145.69 180 139.737 180C139.164 180 138.553 180 137.981 179.962C126.646 179.238 116.113 174.82 108.213 171.05C86.612 160.614 67.6444 145.799 51.8827 127.022C38.8687 111.369 30.1673 96.896 24.4045 81.3568C20.8552 71.8733 19.5576 64.4846 20.1301 57.5148C20.5117 53.0588 22.2291 49.3644 25.3967 46.2033L38.4107 33.2159C40.2808 31.4639 42.2653 30.5118 44.2117 30.5118C46.616 30.5118 48.5624 31.959 49.7836 33.1778C49.8218 33.2159 49.86 33.254 49.8981 33.2921C52.2261 35.463 54.4397 37.71 56.7677 40.1095C57.9508 41.3282 59.172 42.547 60.3933 43.8038L70.8121 54.2014C74.8575 58.2385 74.8575 61.9709 70.8121 66.0081C69.7053 67.1126 68.6367 68.2171 67.53 69.2835C64.3242 72.5589 66.8425 70.0457 63.5222 73.0164C63.4459 73.0926 63.3696 73.1307 63.3314 73.2068C60.0493 76.4823 60.6599 79.6815 61.3469 81.8524C61.385 81.9667 61.4232 82.0809 61.4614 82.1952C64.171 88.746 67.9874 94.916 73.7884 102.267L73.8265 102.305C84.3598 115.254 95.4656 125.347 107.716 133.078C109.281 134.069 110.884 134.868 112.41 135.63C113.784 136.316 115.082 136.963 116.189 137.649C116.341 137.725 116.494 137.839 116.647 137.915C117.944 138.563 119.166 138.867 120.425 138.867C123.593 138.867 125.577 136.887 126.226 136.239L133.707 128.774C135.004 127.479 137.065 125.918 139.469 125.918C141.836 125.918 143.782 127.403 144.965 128.698C145.003 128.736 145.003 128.736 145.041 128.774L166.07 149.76C170.001 153.644 166.108 161.681 166.108 161.681Z" stroke="#0D3F8E" stroke-width="8" stroke-linecap="round" stroke-linejoin="round"/>
</svg>
