<svg width="174" height="74" viewBox="0 0 174 74" fill="none" xmlns="http://www.w3.org/2000/svg">
<path d="M25.1599 7.40039C21.0906 7.40039 17.7599 10.7311 17.7599 14.8004V17.7604H14.7999C10.7306 17.7604 7.3999 21.0911 7.3999 25.1604V59.2004C7.3999 63.2697 10.7306 66.6004 14.7999 66.6004H48.8399C52.9092 66.6004 56.2399 63.2697 56.2399 59.2004V56.2404H59.1999C63.2692 56.2404 66.5999 52.9097 66.5999 48.8404V14.8004C66.5999 10.7311 63.2692 7.40039 59.1999 7.40039H25.1599ZM25.1599 10.3604H59.1999C61.6693 10.3604 63.6399 12.331 63.6399 14.8004V48.8404C63.6399 51.3097 61.6693 53.2804 59.1999 53.2804H56.2399H53.2799H25.1599C22.6905 53.2804 20.7199 51.3097 20.7199 48.8404V34.0404C20.7199 32.3877 22.0272 31.0804 23.6799 31.0804H28.1199V39.9604C28.1199 43.2124 30.7878 45.8804 34.0399 45.8804H42.9199H45.8799H50.3199C53.572 45.8804 56.2399 43.2124 56.2399 39.9604V25.1604C56.2399 21.0911 52.9092 17.7604 48.8399 17.7604H20.7199V14.8004C20.7199 12.331 22.6905 10.3604 25.1599 10.3604ZM14.7999 20.7204H17.7599H20.7199H48.8399C51.3093 20.7204 53.2799 22.691 53.2799 25.1604V39.9604C53.2799 41.6131 51.9726 42.9204 50.3199 42.9204H45.8799V34.0404C45.8799 30.7883 43.212 28.1204 39.9599 28.1204H31.0799H28.1199H23.6799C20.4278 28.1204 17.7599 30.7883 17.7599 34.0404V48.8404C17.7599 52.9097 21.0906 56.2404 25.1599 56.2404H53.2799V59.2004C53.2799 61.6697 51.3093 63.6404 48.8399 63.6404H14.7999C12.3305 63.6404 10.3599 61.6697 10.3599 59.2004V25.1604C10.3599 22.691 12.3305 20.7204 14.7999 20.7204ZM31.0799 31.0804H39.9599C41.6126 31.0804 42.9199 32.3877 42.9199 34.0404V42.9204H34.0399C32.3872 42.9204 31.0799 41.6131 31.0799 39.9604V31.0804Z" fill="white" fill-opacity="0.7"/>
<path d="M104.817 50C102.119 50 100.14 49.4141 98.8802 48.2423C97.62 47.0705 96.9899 45.3128 96.9899 42.9692V33.8158C96.9899 31.4722 97.62 29.7145 98.8802 28.5427C100.14 27.3709 102.119 26.785 104.817 26.785H112.743V29.2723H104.817C103.203 29.2723 102.02 29.6482 101.268 30.3999C100.516 31.1295 100.14 32.2682 100.14 33.8158V37.1323H111.118V39.6527H100.14V42.9692C100.14 44.5168 100.516 45.6665 101.268 46.4183C102.02 47.1479 103.203 47.5127 104.817 47.5127H112.876V50H104.817ZM122.495 29.2723H115.166V26.785H133.008V29.2723H125.646V50H122.495V29.2723ZM143.397 50.3648C141.275 50.3648 139.561 50.0442 138.257 49.403C136.974 48.7619 135.77 47.7006 134.642 46.2193L136.764 44.3952C137.693 45.6776 138.644 46.5841 139.617 47.1147C140.589 47.6232 141.816 47.8775 143.298 47.8775C145.266 47.8775 146.758 47.5348 147.775 46.8494C148.814 46.1419 149.334 45.1138 149.334 43.7651C149.334 42.9913 149.124 42.3612 148.704 41.8748C148.306 41.3883 147.598 40.9683 146.581 40.6145C145.564 40.2386 144.061 39.8517 142.071 39.4538C139.838 39.0116 138.191 38.2598 137.129 37.1986C136.068 36.1373 135.537 34.7334 135.537 32.9867C135.537 30.9527 136.267 29.3497 137.726 28.1779C139.208 27.0061 141.231 26.4202 143.795 26.4202C147.576 26.4202 150.251 27.6694 151.821 30.1678L149.699 31.8923C148.925 30.8974 148.062 30.1567 147.112 29.6703C146.183 29.1618 145.067 28.9075 143.762 28.9075C142.17 28.9075 140.921 29.2723 140.015 30.0019C139.13 30.7094 138.688 31.6823 138.688 32.9204C138.688 34.0259 139.13 34.8992 140.015 35.5404C140.899 36.1594 142.237 36.6459 144.027 36.9996C146.084 37.4197 147.709 37.884 148.903 38.3925C150.096 38.901 150.992 39.5754 151.589 40.4155C152.186 41.2557 152.484 42.3612 152.484 43.732C152.484 45.9208 151.71 47.579 150.163 48.7066C148.637 49.8121 146.382 50.3648 143.397 50.3648ZM156.134 33.8158C156.134 31.4722 156.764 29.7145 158.024 28.5427C159.285 27.3709 161.263 26.785 163.961 26.785H171.887V29.2723H163.961C162.347 29.2723 161.164 29.6482 160.412 30.3999C159.66 31.1295 159.285 32.2682 159.285 33.8158V37.7955H170.262V40.316H159.285V50H156.134V33.8158Z" fill="white" fill-opacity="0.7"/>
</svg>
