<svg width="106" height="29" viewBox="0 0 106 29" fill="none" xmlns="http://www.w3.org/2000/svg">
<path d="M0.8 28.5V24.22H4.52V5.18H0.8V0.899998H13.84V5.18H10.08V24.22H13.84V28.5H0.8ZM22.1938 25.3L24.9538 20.78C26.1271 21.7933 27.4738 22.6067 28.9938 23.22C30.5404 23.8067 32.1004 24.1 33.6738 24.1C34.6604 24.1 35.4871 23.98 36.1538 23.74C36.8471 23.4733 37.3671 23.1267 37.7138 22.7C38.0871 22.2733 38.2738 21.8067 38.2738 21.3C38.2738 20.82 38.1138 20.3533 37.7938 19.9C37.4738 19.42 36.9004 18.9533 36.0738 18.5C35.2738 18.02 34.1138 17.5267 32.5938 17.02C30.3804 16.3 28.6071 15.5 27.2738 14.62C25.9404 13.7133 24.9804 12.74 24.3938 11.7C23.8071 10.6333 23.5138 9.51333 23.5138 8.34C23.5138 6.9 23.9004 5.58 24.6738 4.38C25.4738 3.18 26.6204 2.23333 28.1138 1.54C29.6338 0.819999 31.4604 0.459999 33.5938 0.459999C35.3271 0.459999 37.0604 0.753332 38.7938 1.34C40.5538 1.92667 42.0604 2.68667 43.3138 3.62L40.6738 7.98C39.6071 7.15333 38.4338 6.48667 37.1538 5.98C35.8738 5.47333 34.5404 5.22 33.1538 5.22C31.8204 5.22 30.8071 5.48667 30.1138 6.02C29.4204 6.55333 29.0738 7.16666 29.0738 7.86C29.0738 8.31333 29.2338 8.75333 29.5538 9.18C29.9004 9.60667 30.4604 10.0333 31.2338 10.46C32.0338 10.86 33.1271 11.2867 34.5138 11.74C36.8071 12.4867 38.6471 13.3267 40.0338 14.26C41.4204 15.1667 42.4204 16.1667 43.0338 17.26C43.6738 18.3533 43.9938 19.5533 43.9938 20.86C43.9938 22.3 43.5938 23.6333 42.7938 24.86C41.9938 26.0867 40.7804 27.0733 39.1538 27.82C37.5271 28.5667 35.5138 28.94 33.1138 28.94C31.8338 28.94 30.5404 28.7933 29.2338 28.5C27.9538 28.18 26.7138 27.7533 25.5138 27.22C24.3404 26.6867 23.2338 26.0467 22.1938 25.3ZM53.5063 28.5V0.899998H63.4663C65.9463 0.899998 68.1729 1.44666 70.1463 2.54C72.1196 3.60667 73.6796 5.16667 74.8263 7.22C75.9996 9.27333 76.5863 11.7667 76.5863 14.7C76.5863 17.6067 75.9996 20.1 74.8263 22.18C73.6796 24.2333 72.1196 25.8067 70.1463 26.9C68.1729 27.9667 65.9463 28.5 63.4663 28.5H53.5063ZM59.0663 23.58H62.9863C64.5329 23.58 65.8929 23.26 67.0663 22.62C68.2663 21.9533 69.1996 20.9533 69.8663 19.62C70.5329 18.2867 70.8663 16.6467 70.8663 14.7C70.8663 12.7267 70.5329 11.0867 69.8663 9.78C69.1996 8.44667 68.2663 7.46 67.0663 6.82C65.8929 6.15333 64.5329 5.82 62.9863 5.82H59.0663V23.58ZM84.1781 25.3L86.9381 20.78C88.1115 21.7933 89.4581 22.6067 90.9781 23.22C92.5248 23.8067 94.0848 24.1 95.6581 24.1C96.6448 24.1 97.4715 23.98 98.1381 23.74C98.8315 23.4733 99.3515 23.1267 99.6981 22.7C100.071 22.2733 100.258 21.8067 100.258 21.3C100.258 20.82 100.098 20.3533 99.7781 19.9C99.4581 19.42 98.8848 18.9533 98.0581 18.5C97.2581 18.02 96.0981 17.5267 94.5781 17.02C92.3648 16.3 90.5915 15.5 89.2581 14.62C87.9248 13.7133 86.9648 12.74 86.3781 11.7C85.7915 10.6333 85.4981 9.51333 85.4981 8.34C85.4981 6.9 85.8848 5.58 86.6581 4.38C87.4581 3.18 88.6048 2.23333 90.0981 1.54C91.6181 0.819999 93.4448 0.459999 95.5781 0.459999C97.3115 0.459999 99.0448 0.753332 100.778 1.34C102.538 1.92667 104.045 2.68667 105.298 3.62L102.658 7.98C101.591 7.15333 100.418 6.48667 99.1381 5.98C97.8581 5.47333 96.5248 5.22 95.1381 5.22C93.8048 5.22 92.7915 5.48667 92.0981 6.02C91.4048 6.55333 91.0581 7.16666 91.0581 7.86C91.0581 8.31333 91.2181 8.75333 91.5381 9.18C91.8848 9.60667 92.4448 10.0333 93.2181 10.46C94.0181 10.86 95.1115 11.2867 96.4981 11.74C98.7915 12.4867 100.631 13.3267 102.018 14.26C103.405 15.1667 104.405 16.1667 105.018 17.26C105.658 18.3533 105.978 19.5533 105.978 20.86C105.978 22.3 105.578 23.6333 104.778 24.86C103.978 26.0867 102.765 27.0733 101.138 27.82C99.5115 28.5667 97.4981 28.94 95.0981 28.94C93.8181 28.94 92.5248 28.7933 91.2181 28.5C89.9381 28.18 88.6981 27.7533 87.4981 27.22C86.3248 26.6867 85.2181 26.0467 84.1781 25.3Z" fill="white" fill-opacity="0.7"/>
</svg>
