<svg width="164" height="74" viewBox="0 0 164 74" fill="none" xmlns="http://www.w3.org/2000/svg">
<path d="M11.5625 11.5625V25.4375H55.5V11.5625H11.5625ZM16.1875 16.1875H50.875V20.8125H16.1875V16.1875ZM20.8125 30.0625V43.9375H64.75V30.0625H20.8125ZM25.4375 34.6875H60.125V39.3125H25.4375V34.6875ZM11.5625 48.5625V62.4375H55.5V48.5625H11.5625ZM16.1875 53.1875H50.875V57.8125H16.1875V53.1875Z" fill="white" fill-opacity="0.7"/>
<path d="M97.94 29.34H92.38L91.46 32H88.52L93.54 18.02H96.8L101.82 32H98.86L97.94 29.34ZM97.18 27.1L95.16 21.26L93.14 27.1H97.18ZM106.496 29.78H111.096V32H103.696V18.04H106.496V29.78ZM121.496 18.04V20.3H115.676V23.88H120.136V26.1H115.676V32H112.876V18.04H121.496ZM132.042 29.34H126.482L125.562 32H122.622L127.642 18.02H130.902L135.922 32H132.962L132.042 29.34ZM131.282 27.1L129.262 21.26L127.242 27.1H131.282ZM88.7 50C88.7 48.6267 89.0067 47.4 89.62 46.32C90.2467 45.2267 91.0933 44.38 92.16 43.78C93.24 43.1667 94.4467 42.86 95.78 42.86C97.34 42.86 98.7067 43.26 99.88 44.06C101.053 44.86 101.873 45.9667 102.34 47.38H99.12C98.8 46.7133 98.3467 46.2133 97.76 45.88C97.1867 45.5467 96.52 45.38 95.76 45.38C94.9467 45.38 94.22 45.5733 93.58 45.96C92.9533 46.3333 92.46 46.8667 92.1 47.56C91.7533 48.2533 91.58 49.0667 91.58 50C91.58 50.92 91.7533 51.7333 92.1 52.44C92.46 53.1333 92.9533 53.6733 93.58 54.06C94.22 54.4333 94.9467 54.62 95.76 54.62C96.52 54.62 97.1867 54.4533 97.76 54.12C98.3467 53.7733 98.8 53.2667 99.12 52.6H102.34C101.873 54.0267 101.053 55.14 99.88 55.94C98.72 56.7267 97.3533 57.12 95.78 57.12C94.4467 57.12 93.24 56.82 92.16 56.22C91.0933 55.6067 90.2467 54.76 89.62 53.68C89.0067 52.6 88.7 51.3733 88.7 50ZM107.532 45.3V48.8H112.232V51.02H107.532V54.72H112.832V57H104.732V43.02H112.832V45.3H107.532ZM127.316 57H124.516L118.176 47.42V57H115.376V43.02H118.176L124.516 52.62V43.02H127.316V57ZM139.583 43.04V45.3H135.863V57H133.063V45.3H129.343V43.04H139.583ZM144.426 45.3V48.8H149.126V51.02H144.426V54.72H149.726V57H141.626V43.02H149.726V45.3H144.426ZM159.471 57L156.391 51.56H155.071V57H152.271V43.04H157.511C158.591 43.04 159.511 43.2333 160.271 43.62C161.031 43.9933 161.597 44.5067 161.971 45.16C162.357 45.8 162.551 46.52 162.551 47.32C162.551 48.24 162.284 49.0733 161.751 49.82C161.217 50.5533 160.424 51.06 159.371 51.34L162.711 57H159.471ZM155.071 49.46H157.411C158.171 49.46 158.737 49.28 159.111 48.92C159.484 48.5467 159.671 48.0333 159.671 47.38C159.671 46.74 159.484 46.2467 159.111 45.9C158.737 45.54 158.171 45.36 157.411 45.36H155.071V49.46Z" fill="white" fill-opacity="0.7"/>
</svg>
